<svg width="150" height="50" viewBox="0 0 150 50" fill="none" xmlns="http://www.w3.org/2000/svg">
<rect width="150" height="50" rx="25" fill="#70FF4D"/>
<path d="M28.5852 32V18.9091H30.1705V25.4034H30.3239L36.2045 18.9091H38.2756L32.7784 24.8153L38.2756 32H36.358L31.8068 25.9148L30.1705 27.7557V32H28.5852ZM41.6314 26.0938V32H40.1229V22.1818H41.5803V23.7159H41.7081C41.9382 23.2173 42.2876 22.8168 42.7564 22.5142C43.2251 22.2074 43.8303 22.054 44.5717 22.054C45.2365 22.054 45.8182 22.1903 46.3168 22.4631C46.8153 22.7315 47.2031 23.1406 47.4801 23.6903C47.7571 24.2358 47.8956 24.9261 47.8956 25.7614V32H46.3871V25.8636C46.3871 25.0923 46.1868 24.4915 45.7862 24.0611C45.3857 23.6264 44.8359 23.4091 44.1371 23.4091C43.6555 23.4091 43.2251 23.5135 42.8459 23.7223C42.4709 23.9311 42.1747 24.2358 41.9574 24.6364C41.7401 25.0369 41.6314 25.5227 41.6314 26.0938ZM54.6408 32.2045C53.7544 32.2045 52.9767 31.9936 52.3077 31.5717C51.6429 31.1499 51.123 30.5597 50.748 29.8011C50.3773 29.0426 50.1919 28.1562 50.1919 27.142C50.1919 26.1193 50.3773 25.2266 50.748 24.4638C51.123 23.701 51.6429 23.1087 52.3077 22.6868C52.9767 22.2649 53.7544 22.054 54.6408 22.054C55.5272 22.054 56.3027 22.2649 56.9675 22.6868C57.6365 23.1087 58.1564 23.701 58.5272 24.4638C58.9022 25.2266 59.0897 26.1193 59.0897 27.142C59.0897 28.1562 58.9022 29.0426 58.5272 29.8011C58.1564 30.5597 57.6365 31.1499 56.9675 31.5717C56.3027 31.9936 55.5272 32.2045 54.6408 32.2045ZM54.6408 30.8494C55.3141 30.8494 55.8681 30.6768 56.3027 30.3317C56.7374 29.9865 57.0591 29.5327 57.2679 28.9702C57.4767 28.4077 57.5811 27.7983 57.5811 27.142C57.5811 26.4858 57.4767 25.8743 57.2679 25.3075C57.0591 24.7408 56.7374 24.2827 56.3027 23.9332C55.8681 23.5838 55.3141 23.4091 54.6408 23.4091C53.9675 23.4091 53.4135 23.5838 52.9789 23.9332C52.5442 24.2827 52.2225 24.7408 52.0137 25.3075C51.8049 25.8743 51.7005 26.4858 51.7005 27.142C51.7005 27.7983 51.8049 28.4077 52.0137 28.9702C52.2225 29.5327 52.5442 29.9865 52.9789 30.3317C53.4135 30.6768 53.9675 30.8494 54.6408 30.8494ZM63.2828 32L60.2914 22.1818H61.8766L63.9988 29.6989H64.101L66.1976 22.1818H67.8084L69.8794 29.6733H69.9817L72.1039 22.1818H73.6891L70.6976 32H69.2147L67.0669 24.4574H66.9135L64.7658 32H63.2828ZM80.9505 18.9091H82.8425L87.2914 29.7756H87.4448L91.8936 18.9091H93.7857V32H92.3027V22.054H92.1749L88.084 32H86.6522L82.5613 22.054H82.4334V32H80.9505V18.9091ZM100.748 32.2045C99.8619 32.2045 99.0842 31.9936 98.4151 31.5717C97.7504 31.1499 97.2305 30.5597 96.8555 29.8011C96.4847 29.0426 96.2994 28.1562 96.2994 27.142C96.2994 26.1193 96.4847 25.2266 96.8555 24.4638C97.2305 23.701 97.7504 23.1087 98.4151 22.6868C99.0842 22.2649 99.8619 22.054 100.748 22.054C101.635 22.054 102.41 22.2649 103.075 22.6868C103.744 23.1087 104.264 23.701 104.635 24.4638C105.01 25.2266 105.197 26.1193 105.197 27.142C105.197 28.1562 105.01 29.0426 104.635 29.8011C104.264 30.5597 103.744 31.1499 103.075 31.5717C102.41 31.9936 101.635 32.2045 100.748 32.2045ZM100.748 30.8494C101.422 30.8494 101.975 30.6768 102.41 30.3317C102.845 29.9865 103.167 29.5327 103.375 28.9702C103.584 28.4077 103.689 27.7983 103.689 27.142C103.689 26.4858 103.584 25.8743 103.375 25.3075C103.167 24.7408 102.845 24.2827 102.41 23.9332C101.975 23.5838 101.422 23.4091 100.748 23.4091C100.075 23.4091 99.521 23.5838 99.0863 23.9332C98.6516 24.2827 98.3299 24.7408 98.1211 25.3075C97.9123 25.8743 97.8079 26.4858 97.8079 27.142C97.8079 27.7983 97.9123 28.4077 98.1211 28.9702C98.3299 29.5327 98.6516 29.9865 99.0863 30.3317C99.521 30.6768 100.075 30.8494 100.748 30.8494ZM107.5 32V22.1818H108.957V23.6648H109.059C109.238 23.179 109.562 22.7848 110.031 22.4822C110.5 22.1797 111.028 22.0284 111.616 22.0284C111.727 22.0284 111.866 22.0305 112.032 22.0348C112.198 22.0391 112.324 22.0455 112.409 22.054V23.5881C112.358 23.5753 112.241 23.5561 112.057 23.5305C111.878 23.5007 111.689 23.4858 111.488 23.4858C111.011 23.4858 110.585 23.5859 110.21 23.7862C109.839 23.9822 109.545 24.255 109.328 24.6044C109.115 24.9496 109.008 25.3437 109.008 25.7869V32H107.5ZM118.015 32.2045C117.069 32.2045 116.253 31.9957 115.567 31.5781C114.885 31.1562 114.358 30.5682 113.988 29.8139C113.621 29.0554 113.438 28.1733 113.438 27.1676C113.438 26.1619 113.621 25.2756 113.988 24.5085C114.358 23.7372 114.874 23.1364 115.535 22.706C116.199 22.2713 116.975 22.054 117.861 22.054C118.373 22.054 118.878 22.1392 119.376 22.3097C119.875 22.4801 120.329 22.7571 120.738 23.1406C121.147 23.5199 121.473 24.0227 121.716 24.6491C121.959 25.2756 122.08 26.0469 122.08 26.9631V27.6023H114.512V26.2983H120.546C120.546 25.7443 120.435 25.25 120.214 24.8153C119.996 24.3807 119.685 24.0376 119.28 23.7862C118.88 23.5348 118.407 23.4091 117.861 23.4091C117.26 23.4091 116.741 23.5582 116.302 23.8565C115.867 24.1506 115.532 24.5341 115.298 25.0071C115.064 25.4801 114.947 25.9872 114.947 26.5284V27.3977C114.947 28.1392 115.074 28.7678 115.33 29.2834C115.59 29.7947 115.95 30.1847 116.41 30.4531C116.871 30.7173 117.405 30.8494 118.015 30.8494C118.411 30.8494 118.769 30.794 119.089 30.6832C119.412 30.5682 119.692 30.3977 119.926 30.1719C120.16 29.9418 120.341 29.6562 120.469 29.3153L121.927 29.7244C121.773 30.2188 121.515 30.6534 121.153 31.0284C120.791 31.3991 120.344 31.6889 119.811 31.8977C119.278 32.1023 118.68 32.2045 118.015 32.2045Z" fill="black"/>
</svg>
